<svg width="29" height="17" viewBox="0 0 29 17" xmlns="http://www.w3.org/2000/svg"><title>icon community</title><g fill="#FFF" fill-rule="evenodd"><path d="M14.071 15.022c-1.355 0-2.711-.199-3.674-.58-.484-.192-.864-.427-1.102-.675-.235-.253-.34-.488-.345-.787.003-1.787.921-3.405 2.406-4.359l.488-.313-.382-.438a3.566 3.566 0 0 1-.887-2.334c0-.965.395-1.841 1.033-2.481a3.507 3.507 0 0 1 2.48-1.033c.965 0 1.841.395 2.481 1.033a3.501 3.501 0 0 1 1.033 2.481c0 .855-.322 1.689-.888 2.334l-.382.438.49.313c1.485.954 2.403 2.572 2.403 4.359-.003.308-.108.549-.344.802-.353.374-1.035.707-1.893.92-.855.215-1.877.32-2.9.32h-.017m.017-13.999a4.525 4.525 0 0 0-4.512 4.513c0 .919.285 1.809.795 2.557a2.598 2.598 0 0 0-.082.065c.089.198.167.402.232.61l-.953.298c-.018-.057-.038-.114-.058-.171a6.144 6.144 0 0 0-1.434 2.855l.099-.03.305.951c-.17.055-.345.104-.525.147a4.336 4.336 0 0 0-.003.162c-.003.576.245 1.092.624 1.481.571.586 1.407.954 2.366 1.201.961.246 2.054.36 3.146.36 1.455-.002 2.91-.191 4.058-.638.573-.227 1.076-.517 1.457-.911.38-.391.625-.913.622-1.493l-.002-.162a7.168 7.168 0 0 1-.528-.147l.308-.951.098.03a6.137 6.137 0 0 0-1.433-2.855c-.021.057-.04.114-.058.171l-.954-.298c.066-.208.144-.412.233-.61l-.083-.066a4.533 4.533 0 0 0 .796-2.556 4.525 4.525 0 0 0-4.514-4.513"/><path d="M5.387.023a4 4 0 0 0-2.821 1.151 3.942 3.942 0 0 0-.526 4.968C.756 7.148.014 8.691.016 10.357a1.92 1.92 0 0 0 .559 1.34c.508.529 1.244.856 2.082 1.077.838.217 1.787.319 2.73.319.883 0 1.768-.083 2.568-.275.18-.043.355-.092.525-.147l-.305-.951-.099.03c-.771.233-1.729.344-2.689.344h-.016c-1.156 0-2.319-.176-3.14-.509-.414-.165-.734-.369-.932-.577-.197-.212-.28-.405-.284-.651.004-1.521.741-2.886 2.005-3.683l.501-.316-.397-.441a2.93 2.93 0 0 1-.73-1.931c.002-1.654 1.332-2.962 2.993-2.963A2.993 2.993 0 0 1 8.38 4.015a2.98 2.98 0 0 1-.737 1.942l-.378.44.493.309A4.305 4.305 0 0 1 9.51 8.895c.02.057.04.114.058.171l.953-.298a5.311 5.311 0 0 0-1.79-2.6 3.938 3.938 0 0 0 .649-2.153A3.991 3.991 0 0 0 5.387.023M22.79.023a3.99 3.99 0 0 0-3.992 3.992c0 .764.224 1.521.643 2.158a5.31 5.31 0 0 0-1.785 2.595l.954.298a4.281 4.281 0 0 1 1.81-2.36l.505-.315-.398-.443a2.927 2.927 0 0 1-.731-1.933 2.994 2.994 0 0 1 5.987 0 2.991 2.991 0 0 1-.737 1.942l-.378.439.489.31a4.285 4.285 0 0 1 2.003 3.651c-.003.246-.085.439-.282.651-.295.315-.875.609-1.61.797-.732.192-1.608.289-2.478.289-.961 0-1.917-.111-2.689-.344l-.098-.03-.308.951c.172.055.347.104.528.147.8.192 1.684.275 2.567.275 1.259-.001 2.524-.178 3.529-.58.504-.203.945-.462 1.284-.816.338-.351.56-.821.558-1.34a5.294 5.294 0 0 0-2.029-4.187 3.944 3.944 0 0 0 .651-2.155A3.991 3.991 0 0 0 22.79.023"/></g></svg>