<svg width="24" height="19" viewBox="0 0 24 19" xmlns="http://www.w3.org/2000/svg"><title>icon tools</title><g fill="#FFF" fill-rule="evenodd"><path d="M1.507 7.731V4.095H22.67v3.636h.499v1.001h-.499v8.273H1.507V8.732h-.498V7.731h.498M22.67 3.595h.499-.499m.999-.5h-7.652c.048.288.048.479.049.5h-1v-.006l-.001-.041-.018-.172a2.928 2.928 0 0 0-.05-.281H9.18a2.59 2.59 0 0 0-.067.485v.015H8.112c0-.021.001-.212.049-.5H.508v14.909h23.161V3.095"/><path d="M23.169 7.731H1.009v1.001h8.648v-.5h1v.5h2.864v-.5h.999v.5h8.649V7.731"/><path d="M14.52 8.232h-.999v1.819h-2.864V8.232h-1v2.818h4.863V8.232M12.1.005h-.021c-.938 0-1.684.212-2.254.552-.866.513-1.297 1.285-1.504 1.9-.079.239-.13.457-.16.638a3.247 3.247 0 0 0-.049.5h1.001V3.58c0-.058.013-.243.067-.485a2.89 2.89 0 0 1 .375-.92 2.29 2.29 0 0 1 .856-.802c.398-.215.931-.368 1.678-.369.796.001 1.35.174 1.756.414.602.357.904.889 1.065 1.36a3.07 3.07 0 0 1 .137.598l.018.172.001.041v.006h1c-.001-.021-.001-.212-.049-.5a4.071 4.071 0 0 0-.45-1.291A3.34 3.34 0 0 0 14.354.557C13.783.217 13.037.005 12.1.005"/></g></svg>