<svg id="Layer_1" xmlns="http://www.w3.org/2000/svg" viewBox="0 0 59 37" enable-background="new 0 0 59 37"><style>.st0{filter:url(#Adobe_OpacityMaskFilter)}.st1{fill:#fff}.st2{mask:url(#mask-2);fill:#3379ac}</style><title>icon-community-question</title><g id="Page-1"><g id="icon-community-question"><defs><filter id="Adobe_OpacityMaskFilter" filterUnits="userSpaceOnUse" x="0" y="0" width="59" height="37"><feColorMatrix values="1 0 0 0 0 0 1 0 0 0 0 0 1 0 0 0 0 0 1 0"/></filter></defs><mask maskUnits="userSpaceOnUse" x="0" y="0" width="59" height="37" id="mask-2"><g class="st0"><path id="path-1" class="st1" d="M0 0h59v37H0V0z"/></g></mask><path id="Fill-1" class="st2" d="M39.8 16.5L58 1.4v33.8L39.8 16.5zm-19.9.6l9.2 7.6c.1.1.2.1.3.1.1 0 .2 0 .3-.1l9.2-7.6L57.3 36H1.7l18.2-18.9zm9.6 6.6L2 1h55L29.5 23.7zM1 1.4l18.2 15L1 35.3V1.4zm58-.9c0-.3-.2-.5-.5-.5H.5C.2 0 0 .2 0 .5v36.2c0 .1.1.1.1.1h.1s.1 0 .1.1H58.7s.1 0 .1-.1h.1l.1-.1V.5z"/></g></g></svg>