<svg width="77" height="61" viewBox="0 0 77 61" xmlns="http://www.w3.org/2000/svg" xmlns:xlink="http://www.w3.org/1999/xlink"><title>Page 1</title><defs><path id="a" d="M0 0h76.596v61H0V0z"/><path id="c" d="M0 0h76.596v61H0V0z"/></defs><g fill="none" fill-rule="evenodd"><mask id="b" fill="#fff"><use xlink:href="#a"/></mask><path d="M75.596 31.49a3.46 3.46 0 0 1-3.457 3.456h-2.637a.5.5 0 0 0-.5.5v10.002L58.647 35.093a.5.5 0 0 0-.354-.147H51.54v-11.04a4.462 4.462 0 0 0-4.457-4.457H26.485V4.456A3.46 3.46 0 0 1 29.94 1h42.198a3.461 3.461 0 0 1 3.457 3.456V31.49zM50.54 34.946h-20.6a3.46 3.46 0 0 1-3.455-3.456V20.449h20.598a3.46 3.46 0 0 1 3.457 3.457v11.04zm0 10.389a3.46 3.46 0 0 1-3.457 3.456h-28.78a.496.496 0 0 0-.353.147L7.593 59.293V49.29a.5.5 0 0 0-.5-.5H4.456A3.46 3.46 0 0 1 1 45.335v-21.43a3.461 3.461 0 0 1 3.456-3.456h21.029v11.04a4.461 4.461 0 0 0 4.456 4.457H50.54v9.389zM72.139 0H29.94a4.461 4.461 0 0 0-4.456 4.456v14.993H4.455A4.461 4.461 0 0 0 0 23.906v21.429a4.461 4.461 0 0 0 4.456 4.456h2.137V60.5a.5.5 0 0 0 .854.354L18.51 49.79h28.573a4.461 4.461 0 0 0 4.457-4.456v-9.39h6.546L69.149 47.01a.5.5 0 0 0 .853-.354v-10.71h2.137a4.461 4.461 0 0 0 4.457-4.455V4.456A4.461 4.461 0 0 0 72.139 0z" fill="#3379AC" mask="url(#b)"/><path d="M19.98 25.924H6.416a.5.5 0 1 0 0 1H19.98a.5.5 0 0 0 0-1M19.98 30.856H6.416a.5.5 0 1 0 0 1H19.98a.5.5 0 0 0 0-1M68.67 17.316H55.109a.5.5 0 0 0 0 1H68.67a.5.5 0 0 0 0-1M68.67 22.248H55.109a.5.5 0 0 0 0 1H68.67a.5.5 0 0 0 0-1" fill="#3379AC"/><mask id="d" fill="#fff"><use xlink:href="#c"/></mask><path d="M67.671 11.884H33.914V8.952h33.757v2.932zm1-3.931H32.914v4.932h35.757V7.953zM43.68 26.47a1.02 1.02 0 1 0 0 2.04 1.02 1.02 0 0 0 0-2.04M38.549 26.47a1.02 1.02 0 1 0 0 2.042 1.02 1.02 0 0 0 0-2.042M33.417 26.47a1.02 1.02 0 1 0 0 2.042 1.02 1.02 0 0 0 0-2.042" fill="#3379AC" mask="url(#d)"/></g></svg>