<svg width="150" height="150" viewBox="0 0 150 150" xmlns="http://www.w3.org/2000/svg" xmlns:xlink="http://www.w3.org/1999/xlink"><title>logo-mozfest</title><defs><path id="a" d="M0 .001h150V150H0V.001z"/></defs><g fill="none" fill-rule="evenodd"><mask id="b" fill="#fff"><use xlink:href="#a"/></mask><path d="M65.783 144.829c5.44.723 10.96.806 16.395.25l.115-.253c4.417-9.731 14.296-16.02 25.165-16.02 3.512 0 6.927.669 10.15 1.986l.262.108a70.11 70.11 0 0 0 11.752-11.435l-.09-.243c-5.112-13.617 1.642-29.27 15.051-34.898l.242-.102a69.932 69.932 0 0 0 .253-16.398l-.254-.117c-13.239-6.013-19.534-21.856-14.03-35.317l.106-.263a70.053 70.053 0 0 0-11.44-11.751l-.255.095a26.706 26.706 0 0 1-9.405 1.7c-11.035 0-21.275-6.733-25.48-16.754l-.102-.242a70.162 70.162 0 0 0-16.396-.256l-.117.256c-4.414 9.73-14.292 16.017-25.162 16.017-3.515 0-6.933-.668-10.157-1.988l-.259-.105a70.04 70.04 0 0 0-11.749 11.44l.092.246c5.108 13.613-1.646 29.264-15.057 34.89l-.239.102a70.215 70.215 0 0 0-.256 16.399l.253.114c13.24 6.017 19.534 21.862 14.033 35.322l-.106.26a70.144 70.144 0 0 0 11.441 11.753l.236-.091a26.712 26.712 0 0 1 9.42-1.704c11.038 0 21.28 6.734 25.487 16.757l.101.242zm9.27 5.17c-3.733 0-7.506-.284-11.214-.843l-1.268-.191-1.093-2.62c-3.504-8.347-12.057-13.958-21.283-13.958-2.687 0-5.315.474-7.81 1.41l-2.643 1.006-1.013-.793a74.725 74.725 0 0 1-14.063-14.45l-.76-1.03 1.08-2.642c4.587-11.221-.66-24.432-11.699-29.45L.69 85.262l-.155-1.272a74.86 74.86 0 0 1 .311-20.153l.191-1.264 2.613-1.098c11.181-4.691 16.812-17.74 12.554-29.088l-.996-2.654.788-1.007A74.63 74.63 0 0 1 30.44 14.667l1.03-.76 2.64 1.079a22.166 22.166 0 0 0 8.434 1.65c9.086 0 17.335-5.24 21.014-13.345L64.74.69 66.01.537A74.732 74.732 0 0 1 86.165.85l1.265.192 1.092 2.614c3.504 8.348 12.055 13.958 21.278 13.958a22.169 22.169 0 0 0 7.813-1.413l2.664-.987 1.002.784a74.704 74.704 0 0 1 14.053 14.439l.76 1.028-1.079 2.648c-4.59 11.224.658 24.432 11.697 29.446l2.597 1.183.154 1.269a74.482 74.482 0 0 1-.31 20.152l-.19 1.264-2.613 1.098c-11.18 4.692-16.812 17.742-12.553 29.092l1 2.652-.79 1.009a74.69 74.69 0 0 1-14.449 14.056l-1.032.76-2.645-1.085a22.146 22.146 0 0 0-8.42-1.645c-9.087 0-17.336 5.238-21.017 13.346l-1.18 2.598-1.272.154a74.75 74.75 0 0 1-8.938.538z" fill="#00283A" mask="url(#b)"/><path d="M75 25.877c-27.085 0-49.121 22.036-49.121 49.12 0 27.088 22.036 49.125 49.12 49.125 27.085 0 49.12-22.037 49.122-49.124 0-13.119-5.11-25.454-14.386-34.732-9.278-9.28-21.613-14.389-34.734-14.389M75 128.68c-29.598 0-53.678-24.083-53.678-53.682 0-29.597 24.08-53.677 53.677-53.677 14.339 0 27.819 5.583 37.958 15.724 10.137 10.14 15.72 23.618 15.72 37.954-.001 29.6-24.081 53.681-53.677 53.681" fill="#00283A"/><path d="M50.342 94.557h12.994l7.503 12.342H57.942l-7.6-12.342zm7.614-51.455h12.566l-7.414 12.72H50.295l7.66-12.72zm45.864 44.771l-7.826-12.877 7.638-13.104 8.29 13.282-8.102 12.7zM79.232 77.467h12.932l7.5 12.343H86.937l-7.704-12.343zm-8.71-.188L63.108 90H50.295l7.66-12.72h12.567zm-7.186-16.9l7.503 12.342H57.942l-7.6-12.342h12.994zM93.344 75.02zM87.16 60.19h12.188l-7.412 12.72H79.124l1.382-2.293L87.16 60.19zM74.804 44.804L82.91 57.79l-6.273 10.417-1.645 2.575-7.826-12.874 7.637-13.104zm-7.637 47.28l7.612-13.059 8.233 13.372-8.018 12.563-7.827-12.876zm50.144-16.883l-12.215-19.569h-18.16L76.27 38.545H55.38l-11.786 19.57L54 75.012l-10.406 17.28 11.8 19.163h20.86L87.16 94.367h17.92l12.23-19.166z" fill="#D9081E"/></g></svg>