<svg width="121" height="69" viewBox="0 0 121 69" xmlns="http://www.w3.org/2000/svg" xmlns:xlink="http://www.w3.org/1999/xlink"><title>logo-clubs</title><defs><path id="a" d="M0 .883h120.646V69H0V.883z"/></defs><g fill="none" fill-rule="evenodd"><path d="M21.276 31.393l-.57-10.678c-.228-3.76-.342-7.713-.228-10.713L16.033 28.58h-5.28L6.002 9.963c.228 3.686.19 7.182 0 10.867l-.57 10.563H0L2.051 5.1h7.105l4.331 18.123L17.553 5.1h7.181l2.014 26.293h-5.472zM35.53 21.324c0 4.635 1.367 6.648 4.026 6.648 2.66 0 4.028-2.05 4.028-6.648 0-4.637-1.368-6.65-3.99-6.65-2.697 0-4.065 2.052-4.065 6.65m13.678 0c0 6.383-3.61 10.676-9.65 10.676-6.004 0-9.65-3.99-9.65-10.676 0-6.422 3.608-10.678 9.687-10.678 6.003 0 9.613 3.991 9.613 10.678M57.455 27.213h9.651l-.532 4.18H51.262v-3.875l9.461-12.121H52.06v-4.141h14.856v3.836l-9.46 12.12z" fill="#A3A3A3"/><mask id="b" fill="#fff"><use xlink:href="#a"/></mask><path d="M70.566 11.256h5.395v20.137h-5.395V11.256zm5.965-7.219c0 1.785-1.368 3.152-3.305 3.152-1.938 0-3.268-1.367-3.268-3.152 0-1.787 1.33-3.154 3.268-3.154 1.937 0 3.305 1.367 3.305 3.154zM86.487 26.111c0 1.14.342 1.596 1.064 1.596.38 0 .798-.076 1.102-.229l1.102 3.838c-1.026.418-2.356.684-3.648.684-3.191 0-5.015-1.9-5.015-5.395V3.238l5.395-.607v23.48zM97.734 26.111c0 1.14.342 1.596 1.064 1.596.38 0 .798-.076 1.102-.229l1.102 3.838c-1.026.418-2.356.684-3.648.684-3.19 0-5.015-1.9-5.015-5.395V3.238l5.395-.607v23.48zM113.883 25.883v-3.838h-1.786c-2.925 0-4.369 1.065-4.369 3.268 0 1.787.912 2.812 2.584 2.812 1.557 0 2.735-.8 3.571-2.242zm5.281-.076c0 1.635.494 2.203 1.482 2.547l-1.14 3.57c-2.28-.19-3.799-.95-4.635-2.963-1.444 2.203-3.648 3.039-6.04 3.039-4.029 0-6.536-2.584-6.536-6.23 0-4.408 3.305-6.801 9.27-6.801h2.318v-.988c0-2.508-1.064-3.307-3.609-3.307-1.33 0-3.268.38-5.32 1.064l-1.216-3.61c2.508-.987 5.168-1.481 7.447-1.481 5.586 0 7.98 2.47 7.98 7.029v8.13zM33.399 44.342l-2.812 3.268c-1.443-1.254-2.963-1.901-4.787-1.901-3.495 0-6.08 2.66-6.08 9.5 0 6.61 2.547 9.383 6.156 9.383 2.204 0 3.724-1.025 5.244-2.203l2.583 3.307C32.03 67.404 29.258 69 25.61 69c-6.991 0-11.778-4.826-11.778-13.791 0-8.853 5.053-13.717 11.626-13.717 3.496 0 5.775 1.026 7.94 2.85M41.95 63.111c0 1.14.343 1.596 1.065 1.596.38 0 .798-.076 1.102-.229l1.102 3.838c-1.026.418-2.356.684-3.648.684-3.191 0-5.015-1.9-5.015-5.395V40.238l5.395-.607v23.48zM59.81 68.393l-.266-2.697C58.1 67.936 56.124 69 53.427 69c-3.724 0-5.623-2.394-5.623-6.27V48.257h5.395v13.79c0 2.204.722 2.927 2.203 2.927 1.482 0 2.736-.988 3.686-2.621V48.256h5.395v20.137H59.81zM82.533 58.324c0-5.244-1.482-6.687-3.61-6.687-1.595 0-2.85 1.064-3.723 2.583v8.625c.836 1.368 2.052 2.165 3.496 2.165 2.24 0 3.837-1.786 3.837-6.686m5.623 0c0 6.23-3.001 10.676-7.978 10.676-2.242 0-4.028-.949-5.282-2.584l-.304 1.976h-4.787V40.238l5.395-.607v10.79a6.644 6.644 0 0 1 5.396-2.775c4.863 0 7.56 3.951 7.56 10.678M106.435 50.078l-2.052 3.154c-1.634-1.1-3.267-1.672-4.863-1.672-1.938 0-2.926.723-2.926 1.825 0 1.177.684 1.71 4.218 2.734 4.027 1.104 6.307 2.773 6.307 6.346 0 4.18-3.913 6.535-8.701 6.535-3.495 0-6.307-1.178-8.207-2.926l2.698-3.002c1.482 1.217 3.343 2.014 5.319 2.014 2.052 0 3.344-.836 3.344-2.164 0-1.559-.722-2.053-4.446-3.078-4.065-1.14-5.965-3.155-5.965-6.194 0-3.42 3.116-6.004 7.979-6.004 2.925 0 5.395.912 7.295 2.432" fill="#A3A3A3" mask="url(#b)"/></g></svg>