<svg width="131" height="45" viewBox="0 0 131 45" xmlns="http://www.w3.org/2000/svg" xmlns:xlink="http://www.w3.org/1999/xlink"><title>logo-gigabit</title><defs><path id="a" d="M0 .191h130.066V45H0"/></defs><g fill="none" fill-rule="evenodd"><path d="M14.615 36.173c-4.679 0-8.297-1.495-10.9-4.726C1.157 28.311 0 24.548 0 19.291c0-6.849 2.074-11.624 6.27-14.76 2.412-1.832 5.016-2.604 8.248-2.604 3.81 0 7.187 1.158 9.936 3.522l-2.797 3.472c-2.316-1.785-4.486-2.556-7.042-2.556-6.174 0-8.442 5.402-8.442 13.216 0 4.678.87 7.958 2.46 9.84 1.352 1.591 3.763 2.508 6.32 2.508 1.736 0 3.183-.386 4.437-1.062v-8.68h-5.692l-.77-4.536h12.105v15.724c-3.039 1.834-6.705 2.798-10.418 2.798M29.241 35.74V11.72l5.355-.966V35.74h-5.355zm2.653-28.025c-1.929 0-3.424-1.59-3.424-3.52 0-1.978 1.543-3.57 3.521-3.57 1.88 0 3.473 1.544 3.473 3.57 0 1.93-1.593 3.52-3.57 3.52zM47.475 14.758c-2.702 0-4.196 1.495-4.196 4.244 0 2.798 1.59 4.1 4.196 4.1 2.749 0 4.196-1.447 4.196-4.148 0-2.75-1.4-4.196-4.196-4.196m10.129.482c-1.013 0-1.736-.193-1.881-.241.145.145 1.59 1.737 1.59 4.244 0 4.245-3.52 7.477-9.26 7.477-1.736.627-3.28 1.543-3.28 2.315 0 .917.338 1.013 6.078 1.013 3.907 0 8.104 1.977 8.104 6.946 0 5.208-4.342 8.006-10.853 8.006-6.32 0-10.901-2.073-10.901-6.656 0-1.157.482-2.605.482-2.605H42.7s-.387.965-.387 1.737c0 2.267 1.93 3.52 5.355 3.52 3.762 0 5.788-1.542 5.788-3.81 0-2.652-2.22-3.376-6.753-3.376-6.56 0-8.007-1.303-8.007-3.714 0-2.412 2.026-3.376 4.63-4.197-3.665-1.06-5.546-3.424-5.546-6.897 0-4.967 3.906-8.247 9.743-8.247 3.473 0 5.45 1.253 7.428 1.253 1.592 0 3.087-.578 4.438-1.687l2.459 3.328c-1.35 1.157-2.604 1.59-4.244 1.59M74.406 24.212c-5.306 0-6.898 1.543-6.898 4.63 0 2.315 1.254 3.763 3.377 3.763 1.688 0 3.328-1.014 4.388-2.557l.097-5.788s-.579-.048-.965-.048zm5.498 12.54c-1.495-.578-2.75-1.736-3.328-3.28-1.977 2.22-4.1 2.99-6.704 2.99-5.596 0-8.103-3.086-8.103-7.33 0-5.644 4.244-8.49 12.057-8.49h1.64V19.34c0-2.797-.481-4.293-3.375-4.293-3.521 0-7.284 2.798-7.284 2.798l-2.364-3.81c3.666-2.316 6.704-3.33 10.37-3.33 3.811 0 6.367 1.4 7.428 4.053.434 1.06.434 2.364.386 5.98l-.096 6.995c-.047 3.28.241 4.34 2.122 5.643l-2.749 3.377z" fill="#A3A3A3"/><mask id="b" fill="#fff"><use xlink:href="#a"/></mask><path d="M95.052 15.24c-2.22 0-3.666 1.254-4.63 2.46v11.913c1.06 1.11 2.604 2.123 4.534 2.123 3.328 0 4.774-2.412 4.774-8.538 0-4.39-.868-7.958-4.678-7.958m.916 21.03c-2.411 0-4.437-.965-5.933-2.797-.241 1.253-.29 1.59-.675 2.266h-4.871c.434-1.11.627-2.17.627-5.45V7.282c0-2.798-.193-4.535-.627-5.885L89.987.19c.29 1.737.387 2.942.387 4.872v5.692c0 1.59-.145 2.314-.145 2.314l.193.048c1.688-1.64 3.473-2.362 5.787-2.362 5.837 0 9.502 4.774 9.502 12.395 0 7.814-4.051 13.12-9.743 13.12" fill="#A3A3A3" mask="url(#b)"/><path d="M108.877 35.74V11.72l5.354-.966V35.74h-5.354zm2.653-28.025c-1.93 0-3.425-1.59-3.425-3.52 0-1.978 1.543-3.57 3.521-3.57 1.881 0 3.473 1.544 3.473 3.57 0 1.93-1.592 3.52-3.569 3.52zM125.29 36.366c-4.726 0-6.366-2.798-6.366-6.27V14.997h-2.702v-3.666h2.702c0-2.073 0-4.196.241-6.029l5.45-1.302c-.24 1.978-.434 4.92-.434 7.331h5.836l-1.398 3.666h-4.486v13.7c0 3.038.675 3.906 2.991 3.906.723 0 1.35-.145 2.266-.482l.675 3.183c-1.59.723-3.135 1.061-4.775 1.061" fill="#A3A3A3"/></g></svg>