<svg width="129" height="130" viewBox="0 0 129 130" xmlns="http://www.w3.org/2000/svg"><title>logo-hive</title><g fill="none" fill-rule="evenodd"><path d="M27.526 62.106a2.852 2.852 0 1 0 5.705.002 2.852 2.852 0 0 0-5.705-.002M54.779 90.74a2.854 2.854 0 0 0 5.704 0 2.85 2.85 0 0 0-2.852-2.852 2.85 2.85 0 0 0-2.852 2.851M29.107 42.096a3.342 3.342 0 0 0 6.681 0 3.34 3.34 0 0 0-6.68 0" fill="#FCD724"/><path d="M31.34 86.945a3.491 3.491 0 0 0 3.487 3.49 3.488 3.488 0 1 0-3.487-3.49M42.082 58.977a4.857 4.857 0 0 0 4.858 4.854 4.858 4.858 0 0 0 4.85-4.854 4.855 4.855 0 0 0-9.708 0" fill="#F79531"/><path d="M67.002 60.264a3.998 3.998 0 0 0 3.996 4.003 4.002 4.002 0 1 0 0-8 3.995 3.995 0 0 0-3.996 3.997" fill="#FCD724"/><path d="M50.294 42.099a2.853 2.853 0 0 0 2.852 2.852 2.853 2.853 0 0 0 0-5.705 2.851 2.851 0 0 0-2.852 2.853M53.956 77.177a4.138 4.138 0 0 0 4.133 4.142 4.138 4.138 0 0 0 0-8.275 4.132 4.132 0 0 0-4.133 4.133" fill="#9BBFE6"/><path d="M101.066 61.342l-27.68 15.981v24.037l5.843-3.373V80.695l21.837-12.608 21.837 12.608v25.217l-21.837 12.61-9.232-5.33-5.841 3.373 15.073 8.701 27.678-15.98V77.322l-27.678-15.98z" fill="#F79531"/><path d="M95.624 76.85v16.12L71.324 107 53.25 117.434 10.884 92.97V44.04l9.57-5.526v-12.57L0 37.758v61.497L53.251 130l50.015-28.875 3.242-1.871V76.85l-5.442-3.143-5.442 3.143zM93.309 30.136L53.252 7.006 35.81 17.079v12.569l17.442-10.073 34.615 19.987 7.757 4.479v14.823l5.442-3.142 5.442 3.142V37.757l-13.2-7.621z" fill="#FCD724"/><path d="M22.306 13.944a3.22 3.22 0 1 0 6.443 0 3.221 3.221 0 0 0-3.226-3.22 3.217 3.217 0 0 0-3.217 3.22" fill="#9BBFE6"/><path d="M13.728 1.989a1.99 1.99 0 0 0 1.989 1.99 1.99 1.99 0 0 0 0-3.979 1.988 1.988 0 0 0-1.99 1.989" fill="#F79531"/></g></svg>