<svg width="145" height="170" viewBox="0 0 145 170" xmlns="http://www.w3.org/2000/svg" xmlns:xlink="http://www.w3.org/1999/xlink"><title>logo-makerparty</title><defs><path id="a" d="M0 .062h145V170H0"/></defs><g fill="none" fill-rule="evenodd"><mask id="b" fill="#fff"><use xlink:href="#a"/></mask><path d="M142.726 39.834L74.775.604c-1.252-.722-3.3-.722-4.55 0l-67.95 39.23C1.024 40.556 0 42.329 0 43.773v78.465c0 1.444 1.023 3.217 2.273 3.939l18.651 10.768.45 33.055 25.962-17.807 22.888 13.214c1.25.722 3.299.722 4.55 0l67.946-39.23c1.251-.722 2.274-2.495 2.274-3.94L145 43.774c0-1.444-1.024-3.217-2.274-3.94" fill="#00A1A6" mask="url(#b)"/><path d="M78.327 76.106l1.65-.985L84.05 83h6.288l-6.385-11.374 6.497-9.237h-6.09l-4.326 6.316c-.856 1.204-1.428 2.082-1.706 2.636V62.39h-5.599V83h5.6v-6.894zM104.802 78.462h-6.668V74.57h6.174V70.1h-6.174v-3.242h6.668v-4.469H92.565V83h12.237v-4.537zM79.68 91.992h5.035v16.058h5.565V91.992h5.02v-4.555H79.68v4.555zM63.69 62.306h-2.067l-1.266 4.97a134.992 134.992 0 0 0 .995 3.911l.89 3.383H58.5l-1.164 4.568h6.06l1.015 3.861H70.5l-6.81-20.693zM59.998 65.776l.014-.075c0 .004 0 .009.002.013l.866-3.408h-4.617L49.538 83h6.075l4.385-17.224zM105.342 94.504l-3.26-7.068h-6.064l6.622 12.431 2.702-5.363zM109.709 87.437l-6.91 13.71v6.903h5.61v-8.051l6.784-12.562h-5.484zM48.8 91.43c.056-.272.1-.498.133-.679l.017.092.889-3.49h-4.655L38.46 108.05h6.11l4.23-16.62zM52.612 87.352H50.58l-1.285 5.049c.066.279.14.582.224.913.294 1.192.546 2.168.754 2.92l.887 3.383h-3.702l-1.163 4.567h6.021l1.017 3.866h6.09l-6.81-20.698zM113.516 62.39h-5.104V83h5.025l.08-20.61zM120.072 74.02c2.33-1.307 3.494-3.153 3.494-5.54 0-4.063-2.8-6.09-8.402-6.09h-.93l-.017 4.215h.862c1.909 0 2.864.706 2.864 2.13 0 1.717-.976 2.58-2.92 2.58h-.824l-.016 4.185h1.208l4.37 7.5h6.316l-6.005-8.98zM39.894 62.39L35.71 76.922 37.26 83h.87l4.16-14.816h.126a274.718 274.718 0 0 0-.192 4.215c-.01.572-.02 1.094-.02 1.566V83h5.12V62.39h-7.431zM32.83 83h3.69l-5.262-20.61H23.85V83h4.935v-8.952c0-1.4-.098-3.365-.295-5.894h.128L32.83 83zM67.026 87.437h-5.377v20.613h5.299l.078-20.613zM73.305 99.068c2.332-1.307 3.498-3.154 3.498-5.541 0-4.06-2.8-6.09-8.4-6.09h-.66l-.016 4.217h.59c1.908 0 2.861.708 2.861 2.125 0 1.72-.97 2.583-2.917 2.583h-.552l-.016 4.185h.935l4.37 7.503h6.316l-6.009-8.982zM29.105 87.437H23.85v20.613h5.175l.08-20.613zM36.85 89.142c-1.308-1.136-3.263-1.706-5.866-1.706h-1.16l-.017 4.5h1.05c1.54 0 2.314.692 2.314 2.084 0 .828-.249 1.476-.742 1.945-.493.47-1.158.706-1.994.706h-.647l-.017 4.537h1.213c2.501 0 4.43-.624 5.787-1.882 1.358-1.253 2.04-3.032 2.04-5.334 0-2.096-.655-3.714-1.962-4.85" fill="#FFE400"/></g></svg>