<svg width="481" height="122" viewBox="0 0 481 122" xmlns="http://www.w3.org/2000/svg"><title>mozilla-wordmark</title><g fill="#FFF" fill-rule="evenodd"><path d="M20.635 34.86c1.454 2.187 2.095 4.138 2.908 8.253 5.686-5.407 12.699-8.252 20.353-8.252 6.912 0 12.585 2.186 16.975 6.649 1.182 1.118 2.323 2.561 3.307 3.978 7.639-7.621 14.48-10.627 23.645-10.627 6.527 0 12.713 1.9 16.49 5.067 4.718 3.97 6.214 8.745 6.214 19.86v57.828H89.32V63.931c0-9.732-1.183-11.613-6.87-11.613-4.077 0-9.806 2.708-14.51 6.837v58.461H47.245V64.694c0-10.147-1.51-12.53-7.582-12.53-4.034 0-9.621 2.035-14.324 6.186v59.266H3.988V60.89c0-11.745-.827-16.819-3.121-20.81l19.768-5.22M149.31 58.669c-1.497 4.304-2.294 10.017-2.294 18.125 0 9.349.982 16.375 2.764 20.49 1.967 4.45 6.885 6.672 11.088 6.672 9.465 0 13.513-8.254 13.513-27.474 0-10.969-1.469-18.132-4.39-21.796-2.096-2.68-5.502-4.276-9.436-4.276-5.23 0-9.478 3.164-11.245 8.259zm39.294-11.744c6.67 7.622 9.65 16.513 9.65 29.696 0 13.98-3.292 23.53-10.49 31.457-6.328 6.984-14.666 11.288-27.523 11.288-22.704 0-37.513-16.528-37.513-42.093 0-25.588 14.965-42.594 37.513-42.594 11.901 0 21.195 3.986 28.363 12.246zM268.548 36.277v14.617l-36.885 51.944h38.325l-5.23 14.778H203.3v-13.181l39.267-53.22h-35.99V36.277h61.97M302.942 34.36v83.256h-21.85v-79.91l21.85-3.345zm2.565-20.477c0 7.318-5.972 13.161-13.526 13.161-7.312 0-13.326-5.843-13.326-13.161 0-7.302 6.214-13.196 13.695-13.196 7.327 0 13.157 5.894 13.157 13.196zM342.735 21.2v63.375c0 14 .171 15.882 1.483 18.103.826 1.444 2.593 2.222 4.418 2.222.784 0 1.254 0 2.437-.293l3.735 12.696c-3.735 1.423-8.31 2.216-13.04 2.216-9.323 0-16.82-4.278-19.415-11.094-1.639-4.136-1.995-6.69-1.995-18.283v-60.71c0-10.635-.284-17.132-1.098-24.469L341.61.042c.783 4.443 1.125 9.69 1.125 21.159M388.058 21.2v63.375c0 14 .187 15.882 1.527 18.103.769 1.444 2.536 2.222 4.361 2.222.826 0 1.325 0 2.48-.293l3.72 12.696c-3.72 1.423-8.296 2.216-13.042 2.216-9.306 0-16.817-4.278-19.426-11.094-1.667-4.136-1.939-6.69-1.939-18.283v-60.71c0-10.635-.326-17.132-1.168-24.469L386.89.042c.898 4.443 1.167 9.69 1.167 21.159M450.672 82.035c-15.108 0-20.41 2.68-20.41 12.41 0 6.33 4.133 10.62 9.677 10.62 4.062 0 8.168-2.068 11.404-5.552l.356-17.478h-1.027zM422.35 39.302c8.125-3.346 15.11-4.762 22.806-4.762 14.053 0 23.66 5.069 26.951 14.133 1.084 3.333 1.583 5.874 1.483 14.618l-.528 27.31v1.442c0 8.733 1.483 12.079 7.87 16.675l-11.603 13.049c-5.104-2.082-9.65-5.747-11.774-9.864-1.61 1.604-3.42 3.159-5.074 4.283-4.048 2.86-9.962 4.457-16.804 4.457-18.599 0-28.704-9.233-28.704-25.406 0-19.095 13.569-28.002 40.134-28.002 1.597 0 3.108 0 4.918.18v-3.317c0-9.072-1.81-12.092-9.848-12.092-6.927 0-15.151 3.317-24.103 9.21l-9.307-15.256c4.433-2.708 7.698-4.283 13.583-6.658z"/></g></svg>